<svg width="800" height="800" viewBox="0 0 800 800" fill="none" xmlns="http://www.w3.org/2000/svg">
<path d="M187.5 306.25C187.5 423.125 283.125 518.75 400 518.75C516.875 518.75 612.5 423.125 612.5 306.25C612.5 189.375 516.875 93.75 400 93.75C283.125 93.75 187.5 189.375 187.5 306.25ZM562.5 306.25C562.5 395.625 489.375 468.75 400 468.75C310.625 468.75 237.5 395.625 237.5 306.25C237.5 216.875 310.625 143.75 400 143.75C489.375 143.75 562.5 216.875 562.5 306.25Z" fill="#BABABA"/>
<path d="M152.5 746.25C218.75 680 306.25 643.75 400 643.75C493.75 643.75 581.25 680 647.5 746.25L683.125 710.625C607.5 635.625 506.875 593.75 400 593.75C293.125 593.75 192.5 635.625 116.875 710.625L152.5 746.25Z" fill="#BABABA"/>
</svg>
