<svg width="163" height="145" viewBox="0 0 163 145" fill="none" xmlns="http://www.w3.org/2000/svg">
<g clip-path="url(#clip0_153_7)">
<circle cx="87.5039" cy="126.5" r="5.5" transform="rotate(-180 87.5039 126.5)" stroke="#403552" stroke-opacity="0.16" stroke-width="2"/>
<circle cx="154.503" cy="136.5" r="6.5" transform="rotate(-180 154.503 136.5)" stroke="#403552" stroke-opacity="0.16" stroke-width="2"/>
<circle cx="68.0254" cy="102.526" r="4" transform="rotate(-180 68.0254 102.526)" stroke="#403552" stroke-opacity="0.16" stroke-width="2"/>
<circle cx="102.525" cy="87.0259" r="3.5" transform="rotate(-180 102.525 87.0259)" stroke="#403552" stroke-opacity="0.16" stroke-width="2"/>
<circle cx="139.503" cy="106.5" r="2.5" transform="rotate(-180 139.503 106.5)" stroke="#403552" stroke-opacity="0.16" stroke-width="2"/>
<circle cx="123.503" cy="141.5" r="2.5" transform="rotate(-180 123.503 141.5)" stroke="#403552" stroke-opacity="0.16" stroke-width="2"/>
<path d="M124.477 127.363C124.177 128.284 122.874 128.284 122.574 127.363L121.221 123.198C120.819 121.962 119.668 121.125 118.368 121.125H113.988C113.02 121.124 112.617 119.885 113.4 119.316L116.943 116.742C117.995 115.978 118.435 114.623 118.033 113.387L116.68 109.222C116.381 108.301 117.435 107.535 118.219 108.104L121.762 110.678C122.813 111.442 124.238 111.442 125.289 110.678L128.832 108.104C129.616 107.535 130.67 108.301 130.371 109.222L129.018 113.387C128.616 114.623 129.056 115.978 130.107 116.742L133.65 119.316C134.434 119.885 134.031 121.124 133.062 121.125H128.683C127.383 121.125 126.232 121.962 125.83 123.198L124.477 127.363Z" stroke="#403552" stroke-opacity="0.16" stroke-width="2"/>
<path d="M148.993 119.396C149.014 118.53 148.476 117.749 147.658 117.461L142.686 115.707L147.74 114.203C148.57 113.955 149.147 113.202 149.168 112.336L149.3 107.064L152.292 111.406C152.784 112.119 153.679 112.435 154.509 112.188L159.563 110.683L156.358 114.872C155.832 115.56 155.809 116.508 156.3 117.221L159.292 121.563L154.32 119.81C153.503 119.522 152.593 119.792 152.066 120.48L148.862 124.668L148.993 119.396Z" stroke="#403552" stroke-opacity="0.16" stroke-width="2"/>
<path d="M106.356 120.457C106.479 121.217 105.732 121.825 105.013 121.551L85.3103 114.056C84.5909 113.782 84.4378 112.832 85.0343 112.346L101.377 99.0309C101.973 98.5447 102.873 98.8867 102.996 99.6466L106.356 120.457Z" stroke="#403552" stroke-opacity="0.16" stroke-width="2"/>
<path d="M140.356 96.9525C139.742 97.4175 138.855 97.044 138.759 96.2802L137.703 87.8724C137.607 87.1088 138.373 86.5274 139.082 86.8258L146.893 90.1147C147.602 90.4134 147.722 91.3682 147.109 91.8333L140.356 96.9525Z" stroke="#403552" stroke-opacity="0.16" stroke-width="2"/>
<path d="M140.736 141.589C140.693 142.358 139.834 142.792 139.189 142.371L126.723 134.212C126.078 133.79 126.132 132.83 126.819 132.482L140.118 125.765C140.806 125.418 141.611 125.944 141.568 126.713L140.736 141.589Z" stroke="#403552" stroke-opacity="0.16" stroke-width="2"/>
<rect x="127.111" y="103.296" width="17.5935" height="17.5935" rx="5" transform="rotate(-164.558 127.111 103.296)" stroke="#403552" stroke-opacity="0.16" stroke-width="2"/>
<path d="M94.0967 142.939C93.91 143.514 93.0978 143.514 92.9111 142.939C92.5599 141.859 91.5525 141.127 90.416 141.127C89.8122 141.127 89.5613 140.354 90.0498 139.999C90.9691 139.331 91.3539 138.147 91.0029 137.066C90.8163 136.492 91.4734 136.014 91.9619 136.369C92.8814 137.037 94.1265 137.037 95.0459 136.369C95.5344 136.014 96.1915 136.492 96.0049 137.066C95.6539 138.147 96.0387 139.331 96.958 139.999C97.4465 140.354 97.1956 141.127 96.5918 141.127C95.4553 141.127 94.4479 141.859 94.0967 142.939Z" stroke="#403552" stroke-opacity="0.16" stroke-width="2"/>
<path d="M88.0358 99.7771C87.9596 100.743 86.692 101.047 86.186 100.221L84.4126 97.3253C83.7337 96.217 82.4179 95.6718 81.1541 95.9751L77.8523 96.7673C76.9104 96.9933 76.2297 95.8823 76.8587 95.1458L79.0642 92.5638C79.9084 91.5757 80.0202 90.1559 79.3413 89.0476L77.5679 86.152C77.0619 85.3261 77.9078 84.3354 78.8027 84.7058L81.9406 86.0057C83.1412 86.503 84.5255 86.171 85.3696 85.1829L87.5752 82.6009C88.2044 81.8644 89.4088 82.3634 89.3326 83.3291L89.0653 86.7144C88.9632 88.01 89.7072 89.2245 90.9077 89.7221L94.0457 91.0219C94.9401 91.3929 94.8377 92.6916 93.896 92.9177L90.5933 93.7102C89.3297 94.0136 88.4053 95.0963 88.3032 96.3918L88.0358 99.7771Z" stroke="#403552" stroke-opacity="0.16" stroke-width="2"/>
<rect x="118.903" y="136.339" width="13.3046" height="13.3046" rx="3" transform="rotate(145.373 118.903 136.339)" stroke="#403552" stroke-opacity="0.16" stroke-width="2"/>
<rect x="161.782" y="102.501" width="8.67925" height="8.67925" rx="2" transform="rotate(-178.56 161.782 102.501)" stroke="#403552" stroke-opacity="0.16" stroke-width="2"/>
<path d="M56 135.929C56 139.242 53.3137 141.929 50 141.929C46.6863 141.929 44 139.242 44 135.929C44 132.615 46.6863 129.929 50 129.929C53.3137 129.929 56 132.615 56 135.929Z" stroke="#403552" stroke-opacity="0.16" stroke-width="2"/>
<circle cx="53.5264" cy="73.5001" r="5.5" transform="rotate(90 53.5264 73.5001)" stroke="#403552" stroke-opacity="0.16" stroke-width="2"/>
<circle cx="7.5" cy="122.5" r="3.5" transform="rotate(90 7.5 122.5)" stroke="#403552" stroke-opacity="0.16" stroke-width="2"/>
<circle cx="22.5259" cy="88.5002" r="2.5" transform="rotate(90 22.5259 88.5002)" stroke="#403552" stroke-opacity="0.16" stroke-width="2"/>
<path d="M48.2918 97.5225C49.2529 97.4016 49.8075 98.5813 49.101 99.2442L45.422 102.696C44.4742 103.585 44.2067 104.984 44.7596 106.16L46.9057 110.726C47.3174 111.602 46.3672 112.493 45.5186 112.026L41.0984 109.595C39.9599 108.968 38.5476 109.146 37.5999 110.035L33.9212 113.487C33.2148 114.15 32.0726 113.522 32.2546 112.57L33.2013 107.615C33.4452 106.338 32.8397 105.05 31.7011 104.423L27.2818 101.991C26.4331 101.524 26.6779 100.244 27.6391 100.123L32.6442 99.4921C33.9336 99.3297 34.9714 98.3557 35.2155 97.0792L36.1635 92.1242C36.3456 91.1729 37.6383 91.0102 38.0504 91.8869L40.1965 96.4525C40.7494 97.6287 41.9972 98.3154 43.2867 98.153L48.2918 97.5225Z" stroke="#403552" stroke-opacity="0.16" stroke-width="2"/>
<path d="M36.9779 81.5016C36.1824 81.1582 35.2562 81.3663 34.6838 82.0167L31.9173 85.1602L32.3073 80.9906C32.388 80.128 31.904 79.3112 31.1085 78.9678L27.2641 77.3081L31.3503 76.3915C32.1957 76.2017 32.8231 75.4889 32.9039 74.6262L33.2939 70.4566L35.4286 74.059C35.8703 74.8044 36.742 75.1808 37.5874 74.991L41.6736 74.0744L38.9071 77.2179C38.3347 77.8684 38.2459 78.8135 38.6876 79.5589L40.8223 83.1613L36.9779 81.5016Z" stroke="#403552" stroke-opacity="0.16" stroke-width="2"/>
<path d="M9.78602 64.2641C8.99879 64.626 8.53421 65.4539 8.6351 66.3144L8.81033 67.8091L7.78978 66.7026C7.20235 66.0657 6.2713 65.8795 5.48407 66.2414L4.11641 66.8707L4.85324 65.5572C5.27722 64.8018 5.16683 63.8595 4.57953 63.2226L3.55899 62.1162L5.03502 62.4112C5.88463 62.5811 6.74733 62.1846 7.17153 61.4291L7.90848 60.1166L8.08371 61.6113C8.1846 62.4718 8.8281 63.1698 9.67766 63.3398L11.1538 63.6357L9.78602 64.2641Z" stroke="#403552" stroke-opacity="0.16" stroke-width="2"/>
<path d="M40.5116 123.471C41.2751 123.569 41.6461 124.458 41.1793 125.07L28.3964 141.832C27.9296 142.444 26.9752 142.321 26.6784 141.611L18.5535 122.159C18.2568 121.449 18.8403 120.684 19.6038 120.782L40.5116 123.471Z" stroke="#403552" stroke-opacity="0.16" stroke-width="2"/>
<path d="M14.633 81.4889C15.3622 81.7355 15.5511 82.6794 14.973 83.1876L7.37191 89.8698C6.79374 90.3779 5.88216 90.0696 5.73108 89.3149L3.74497 79.3915C3.5939 78.6367 4.31657 78.0012 5.04581 78.2478L14.633 81.4889Z" stroke="#403552" stroke-opacity="0.16" stroke-width="2"/>
<path d="M63.2552 141.989C62.4855 141.981 62.0136 141.143 62.4054 140.48L70.2777 127.172C70.6696 126.509 71.6319 126.52 72.0097 127.191L79.5984 140.662C79.9762 141.333 79.4864 142.161 78.7166 142.153L63.2552 141.989Z" stroke="#403552" stroke-opacity="0.16" stroke-width="2"/>
<path d="M65.571 88.2444C66.3234 88.4068 66.6182 89.3232 66.1013 89.8937L56.098 100.935C55.5811 101.506 54.6405 101.303 54.4048 100.57L49.8436 86.3859C49.6081 85.6531 50.254 84.9398 51.0064 85.1021L65.571 88.2444Z" stroke="#403552" stroke-opacity="0.16" stroke-width="2"/>
<rect x="20.5986" y="95.2211" width="17.5935" height="17.5935" rx="5" transform="rotate(82.7966 20.5986 95.2211)" stroke="#403552" stroke-opacity="0.16" stroke-width="2"/>
<rect x="76.0901" y="67.1798" width="11.5507" height="11.5507" rx="4" transform="rotate(81.0734 76.0901 67.1798)" stroke="#403552" stroke-opacity="0.16" stroke-width="2"/>
<path d="M77.9434 115.907C78.5175 116.094 78.5175 116.906 77.9434 117.093C76.8625 117.444 76.1309 118.451 76.1309 119.588C76.1308 120.192 75.3579 120.443 75.0029 119.954C74.335 119.035 73.1511 118.65 72.0703 119.001C71.496 119.188 71.0181 118.531 71.373 118.042C72.041 117.123 72.041 115.877 71.373 114.958C71.0181 114.469 71.496 113.812 72.0703 113.999C73.1511 114.35 74.335 113.965 75.0029 113.046C75.3579 112.557 76.1308 112.808 76.1309 113.412C76.1309 114.549 76.8625 115.556 77.9434 115.907Z" stroke="#403552" stroke-opacity="0.16" stroke-width="2"/>
<path d="M13.7442 136.209C14.7099 136.286 15.0141 137.553 14.188 138.059L13.8605 138.259C12.7524 138.938 12.208 140.254 12.5112 141.518L12.6007 141.891C12.8264 142.833 11.7145 143.513 10.978 142.884L10.6864 142.635C9.69828 141.791 8.27941 141.679 7.17121 142.358L6.84362 142.558C6.01764 143.064 5.02738 142.217 5.39817 141.322L5.54435 140.969C6.04187 139.768 5.70953 138.383 4.72135 137.539L4.43071 137.29C3.69425 136.661 4.19245 135.457 5.15797 135.533L5.5407 135.563C6.83631 135.665 8.04983 134.921 8.54737 133.72L8.6945 133.367C9.06528 132.472 10.3648 132.574 10.5911 133.515L10.6806 133.889C10.9838 135.152 12.066 136.077 13.3615 136.18L13.7442 136.209Z" stroke="#403552" stroke-opacity="0.16" stroke-width="2"/>
<rect x="55.0695" y="109.394" width="13.3046" height="13.3046" rx="3" transform="rotate(35.235 55.0695 109.394)" stroke="#403552" stroke-opacity="0.16" stroke-width="2"/>
<rect x="26.2501" y="64.2756" width="9.9779" height="9.9779" rx="2" transform="rotate(91.44 26.2501 64.2756)" stroke="#403552" stroke-opacity="0.16" stroke-width="2"/>
<path d="M75.5034 14C78.541 14 81.0034 16.4624 81.0034 19.5C81.0034 22.5376 78.541 25 75.5034 25C72.4659 25 70.0034 22.5376 70.0034 19.5C70.0034 16.4624 72.4659 14 75.5034 14Z" stroke="#403552" stroke-opacity="0.16" stroke-width="2"/>
<circle cx="9.50439" cy="9.5" r="6.5" stroke="#403552" stroke-opacity="0.16" stroke-width="2"/>
<circle cx="96.0044" cy="43" r="4" stroke="#403552" stroke-opacity="0.16" stroke-width="2"/>
<circle cx="61.5044" cy="58.5" r="3.5" stroke="#403552" stroke-opacity="0.16" stroke-width="2"/>
<circle cx="26.5044" cy="43.5" r="2.5" stroke="#403552" stroke-opacity="0.16" stroke-width="2"/>
<path d="M39.5532 18.1631C39.8526 17.2418 41.1562 17.2418 41.4556 18.1631L42.8091 22.3281C43.2107 23.5641 44.3621 24.4012 45.6616 24.4014H50.0415C51.0101 24.4014 51.4128 25.6405 50.6294 26.21L47.0864 28.7842C46.035 29.5481 45.595 30.9026 45.9966 32.1387L47.3501 36.3037C47.6493 37.2249 46.5947 37.991 45.811 37.4219L42.2681 34.8477C41.2166 34.0837 39.7922 34.0837 38.7407 34.8477L35.1978 37.4219C34.4141 37.991 33.3595 37.2249 33.6587 36.3037L35.0122 32.1387C35.4138 30.9026 34.9738 29.5481 33.9224 28.7842L30.3794 26.21C29.596 25.6405 29.9987 24.4014 30.9673 24.4014H35.3472C36.6467 24.4012 37.7981 23.5641 38.1997 22.3281L39.5532 18.1631Z" stroke="#403552" stroke-opacity="0.16" stroke-width="2"/>
<path d="M18.0931 25.7702C18.0716 26.6363 18.6098 27.4175 19.4267 27.7057L24.3531 29.4428L19.3469 30.9332C18.5165 31.1804 17.9396 31.9344 17.918 32.8006L17.7878 38.0212L14.8243 33.7217C14.3326 33.0082 13.437 32.6924 12.6066 32.9396L7.60079 34.429L10.7749 30.2818C11.3014 29.5937 11.3251 28.6445 10.8334 27.9311L7.86934 23.6303L12.7947 25.3671C13.6119 25.6553 14.5218 25.3847 15.0483 24.6966L18.2224 20.5493L18.0931 25.7702Z" stroke="#403552" stroke-opacity="0.16" stroke-width="2"/>
<path d="M57.9817 26.4451C57.859 25.6851 58.6053 25.0771 59.3248 25.3508L78.0056 32.4579C78.725 32.7315 78.8788 33.681 78.2823 34.1673L62.7864 46.7929C62.1896 47.279 61.2901 46.9371 61.1674 46.1772L57.9817 26.4451Z" stroke="#403552" stroke-opacity="0.16" stroke-width="2"/>
<path d="M17.4376 50.8774C17.3149 50.1174 18.0612 49.5094 18.7807 49.7831L26.7005 52.7967C27.4199 53.0703 27.5736 54.0198 26.9772 54.5061L20.4073 59.8591C19.8106 60.3451 18.9112 60.003 18.7883 59.2434L17.4376 50.8774Z" stroke="#403552" stroke-opacity="0.16" stroke-width="2"/>
<path d="M26.1313 2.79031C26.2036 2.02394 27.0788 1.62308 27.7063 2.06893L39.852 10.6985C40.4796 11.1443 40.389 12.1024 39.6891 12.4229L26.1428 18.6271C25.443 18.9475 24.6584 18.3904 24.7307 17.624L26.1313 2.79031Z" stroke="#403552" stroke-opacity="0.16" stroke-width="2"/>
<rect x="36.9188" y="42.2302" width="17.5935" height="17.5935" rx="5" transform="rotate(15.4417 36.9188 42.2302)" stroke="#403552" stroke-opacity="0.16" stroke-width="2"/>
<path d="M73.9106 2.06055C74.0973 1.48641 74.9095 1.48641 75.0962 2.06055C75.4474 3.14143 76.4548 3.87305 77.5913 3.87305C78.1951 3.87312 78.446 4.64605 77.9575 5.00098C77.0382 5.66891 76.6535 6.85285 77.0044 7.93359C77.191 8.5079 76.5339 8.9858 76.0454 8.63086C75.126 7.96287 73.8809 7.96287 72.9614 8.63086C72.4729 8.9858 71.8158 8.5079 72.0024 7.93359C72.3534 6.85285 71.9686 5.66891 71.0493 5.00098C70.5608 4.64605 70.8117 3.87312 71.4155 3.87305C72.552 3.87305 73.5594 3.14143 73.9106 2.06055Z" stroke="#403552" stroke-opacity="0.16" stroke-width="2"/>
<path d="M75.9939 45.7488C76.0701 44.7831 77.3377 44.4789 77.8438 45.3049L79.6172 48.2006C80.2961 49.3088 81.6118 49.8541 82.8757 49.5508L86.1774 48.7586C87.1194 48.5326 87.8001 49.6435 87.1711 50.3801L84.9656 52.962C84.1214 53.9502 84.0095 55.37 84.6885 56.4782L86.4619 59.3739C86.9679 60.1998 86.1219 61.1905 85.2271 60.82L82.0892 59.5202C80.8886 59.0229 79.5043 59.3549 78.6601 60.343L76.4546 62.9249C75.8254 63.6615 74.621 63.1625 74.6972 62.1967L74.9645 58.8114C75.0666 57.5159 74.3226 56.3014 73.122 55.8038L69.9841 54.504C69.0897 54.133 69.1921 52.8343 70.1338 52.6081L73.4365 51.8157C74.7001 51.5123 75.6245 50.4296 75.7266 49.1341L75.9939 45.7488Z" stroke="#403552" stroke-opacity="0.16" stroke-width="2"/>
<rect x="45.5894" y="12.922" width="14.2677" height="14.2677" rx="3" transform="rotate(-56.3059 45.5894 12.922)" stroke="#403552" stroke-opacity="0.16" stroke-width="2"/>
<rect x="2.24701" y="43.0248" width="8.67925" height="8.67925" rx="2" transform="rotate(1.44001 2.24701 43.0248)" stroke="#403552" stroke-opacity="0.16" stroke-width="2"/>
<circle cx="116.004" cy="8" r="6" transform="rotate(-90 116.004 8)" stroke="#403552" stroke-opacity="0.16" stroke-width="2"/>
<circle cx="110.504" cy="72.0259" r="5.5" transform="rotate(-90 110.504 72.0259)" stroke="#403552" stroke-opacity="0.16" stroke-width="2"/>
<circle cx="156.503" cy="22.5" r="3.5" transform="rotate(-90 156.503 22.5)" stroke="#403552" stroke-opacity="0.16" stroke-width="2"/>
<circle cx="141.003" cy="58" r="3" transform="rotate(-90 141.003 58)" stroke="#403552" stroke-opacity="0.16" stroke-width="2"/>
<path d="M116.167 43.9769C115.246 43.6776 115.246 42.3739 116.167 42.0746L120.332 40.7211C121.568 40.3195 122.405 39.1681 122.405 37.8685V33.4886C122.405 32.52 123.644 32.1174 124.214 32.9008L126.788 36.4437C127.552 37.4952 128.907 37.9352 130.143 37.5336L134.308 36.1801C135.229 35.8809 135.995 36.9355 135.426 37.7191L132.852 41.2621C132.088 42.3135 132.088 43.738 132.852 44.7894L135.426 48.3324C135.995 49.1161 135.229 50.1706 134.308 49.8715L130.143 48.5179C128.907 48.1163 127.552 48.5563 126.788 49.6078L124.214 53.1508C123.644 53.9342 122.405 53.5315 122.405 52.5629V48.183C122.405 46.8834 121.568 45.732 120.332 45.3304L116.167 43.9769Z" stroke="#403552" stroke-opacity="0.16" stroke-width="2"/>
<path d="M127.052 64.0244C127.848 64.3678 128.774 64.1597 129.346 63.5093L132.113 60.3658L131.723 64.5354C131.642 65.398 132.126 66.2148 132.922 66.5582L136.766 68.2179L132.68 69.1345C131.835 69.3243 131.207 70.0371 131.126 70.8998L130.736 75.0694L128.602 71.467C128.16 70.7216 127.288 70.3452 126.443 70.535L122.357 71.4516L125.123 68.3081C125.696 67.6576 125.784 66.7125 125.343 65.9671L123.208 62.3647L127.052 64.0244Z" stroke="#403552" stroke-opacity="0.16" stroke-width="2"/>
<path d="M155.626 81.0098C156.474 81.1876 157.34 80.7997 157.771 80.0485L158.432 78.8965L158.574 80.2166C158.667 81.078 159.304 81.7819 160.152 81.9599L161.451 82.2327L160.24 82.776C159.449 83.1305 158.977 83.9535 159.07 84.8147L159.211 86.1356L158.321 85.1505C157.739 84.5083 156.81 84.3131 156.02 84.6676L154.808 85.2109L155.469 84.0598C155.9 83.3083 155.799 82.3645 155.217 81.7221L154.326 80.7378L155.626 81.0098Z" stroke="#403552" stroke-opacity="0.16" stroke-width="2"/>
<path d="M124.214 24.9914C123.445 25.0315 122.921 24.224 123.271 23.5382L132.847 4.75878C133.197 4.07317 134.158 4.02333 134.577 4.66883L146.052 22.3517C146.471 22.9974 146.034 23.8548 145.265 23.8949L124.214 24.9914Z" stroke="#403552" stroke-opacity="0.16" stroke-width="2"/>
<path d="M149.537 64.6779C148.808 64.4313 148.619 63.4874 149.197 62.9791L156.798 56.2969C157.376 55.7888 158.288 56.0971 158.439 56.8519L160.425 66.7752C160.576 67.53 159.853 68.1655 159.124 67.9189L149.537 64.6779Z" stroke="#403552" stroke-opacity="0.16" stroke-width="2"/>
<path d="M103.119 5.16645C103.885 5.24514 104.278 6.12363 103.827 6.74746L93.9574 20.3989C93.5063 21.0226 92.5491 20.9241 92.2343 20.2216L85.3469 4.84825C85.0325 4.1459 85.5961 3.36604 86.3617 3.44447L103.119 5.16645Z" stroke="#403552" stroke-opacity="0.16" stroke-width="2"/>
<path d="M98.4588 57.2816C97.7063 57.1192 97.4116 56.2028 97.9285 55.6323L107.932 44.5906C108.449 44.0201 109.389 44.2232 109.625 44.956L114.186 59.1401C114.422 59.8729 113.776 60.5862 113.023 60.4239L98.4588 57.2816Z" stroke="#403552" stroke-opacity="0.16" stroke-width="2"/>
<rect x="140.234" y="46.6114" width="17.5935" height="17.5935" rx="5" transform="rotate(-74.5583 140.234 46.6114)" stroke="#403552" stroke-opacity="0.16" stroke-width="2"/>
<rect x="87.9397" y="78.3462" width="11.5507" height="11.5507" rx="4" transform="rotate(-98.9266 87.9397 78.3462)" stroke="#403552" stroke-opacity="0.16" stroke-width="2"/>
<path d="M86.0645 31.0928C85.4903 30.9061 85.4903 30.0939 86.0645 29.9072C87.1453 29.556 87.877 28.5486 87.877 27.4121C87.877 26.8083 88.65 26.5574 89.0049 27.0459C89.6728 27.9652 90.8568 28.35 91.9375 27.999C92.5118 27.8124 92.9897 28.4695 92.6348 28.958C91.9668 29.8774 91.9668 31.1226 92.6348 32.042C92.9897 32.5305 92.5118 33.1876 91.9375 33.001C90.8568 32.65 89.6728 33.0348 89.0049 33.9541C88.65 34.4426 87.877 34.1917 87.877 33.5879C87.877 32.4514 87.1453 31.444 86.0645 31.0928Z" stroke="#403552" stroke-opacity="0.16" stroke-width="2"/>
<path d="M147.785 9.31643C146.819 9.2403 146.515 7.97264 147.341 7.46659L147.669 7.26647C148.777 6.58747 149.321 5.2719 149.018 4.00821L148.929 3.63501C148.703 2.69322 149.815 2.01294 150.551 2.64209L150.843 2.89048C151.831 3.73461 153.25 3.84669 154.358 3.1678L154.686 2.96768C155.512 2.46198 156.502 3.30876 156.131 4.2036L155.985 4.55703C155.487 5.75772 155.82 7.14282 156.808 7.98702L157.099 8.23564C157.835 8.8648 157.337 10.0687 156.371 9.99289L155.989 9.9632C154.693 9.86108 153.479 10.6048 152.982 11.8054L152.835 12.1591C152.464 13.0539 151.165 12.9522 150.938 12.0106L150.849 11.6374C150.545 10.3737 149.463 9.44839 148.168 9.34611L147.785 9.31643Z" stroke="#403552" stroke-opacity="0.16" stroke-width="2"/>
<rect x="105.955" y="37.1348" width="13.3046" height="13.3046" rx="3" transform="rotate(-124.627 105.955 37.1348)" stroke="#403552" stroke-opacity="0.16" stroke-width="2"/>
<rect x="138.338" y="78.156" width="8.67925" height="8.67925" rx="2" transform="rotate(-64.3103 138.338 78.156)" stroke="#403552" stroke-opacity="0.16" stroke-width="2"/>
</g>
<defs>
<clipPath id="clip0_153_7">
<rect width="163" height="145" fill="white"/>
</clipPath>
</defs>
</svg>
